<svg xmlns="http://www.w3.org/2000/svg" width="112.106" height="112.106" viewBox="0 0 112.106 112.106">
  <path id="conference" d="M92.09,96.224a9.041,9.041,0,1,0-12.212,0,16.351,16.351,0,0,0-8.359,7.652,16.358,16.358,0,0,0-8.359-7.652,9.041,9.041,0,1,0-12.212,0,16.351,16.351,0,0,0-8.359,7.652,16.357,16.357,0,0,0-8.359-7.652,9.041,9.041,0,1,0-12.212,0A16.292,16.292,0,0,0,11.849,111.3v1.808h90.408V111.3A16.292,16.292,0,0,0,92.09,96.224ZM22.7,89.6a5.425,5.425,0,1,1,5.425,5.425A5.431,5.431,0,0,1,22.7,89.6Zm-7.1,19.89a12.659,12.659,0,0,1,25.058,0ZM51.629,89.6a5.425,5.425,0,1,1,5.425,5.425A5.431,5.431,0,0,1,51.629,89.6Zm-7.1,19.89a12.659,12.659,0,0,1,25.058,0ZM80.559,89.6a5.425,5.425,0,1,1,5.424,5.425A5.431,5.431,0,0,1,80.559,89.6Zm-7.1,19.89a12.659,12.659,0,0,1,25.058,0ZM84.176,51.629h21.7v3.616h-21.7Zm18.082,7.233h3.616v3.616h-3.616Zm-18.082,0H98.641v3.616H84.176ZM107.682,44.4H82.621A27.176,27.176,0,0,0,65.009,27.533a14.465,14.465,0,1,0-15.906,0A27.225,27.225,0,0,0,31.493,44.4H6.425A5.431,5.431,0,0,0,1,49.821V64.286A5.431,5.431,0,0,0,6.425,69.71h4.385l4.179,7.178.114.175a4.221,4.221,0,0,0,7.6-2.531V69.71h9.041a5.431,5.431,0,0,0,5.425-5.425V62.478h39.78v1.808a5.431,5.431,0,0,0,5.425,5.425h9.041v4.822A4.218,4.218,0,0,0,99,77.062L103.3,69.71h4.385a5.431,5.431,0,0,0,5.424-5.425V49.821A5.431,5.431,0,0,0,107.682,44.4Zm-41.83,3.56L59.621,58.861h-.193L66.8,32.068a23.823,23.823,0,0,1,3.508,1.987l-.515,5.7-6.032,4.021ZM54.486,58.861,48.255,47.956l2.088-4.18-6.032-4.021-.514-5.69a23.936,23.936,0,0,1,3.508-1.991l7.374,26.788ZM46.2,15.465A10.849,10.849,0,1,1,57.053,26.314,10.86,10.86,0,0,1,46.2,15.465Zm17.19,15.357L57.053,53.855,50.714,30.826a22.949,22.949,0,0,1,12.681,0ZM33.547,64.286a1.81,1.81,0,0,1-1.808,1.808H19.082v8.439a.627.627,0,0,1-1.04.414l-5.153-8.853H6.424a1.81,1.81,0,0,1-1.808-1.808V49.821a1.81,1.81,0,0,1,1.808-1.808H31.739a1.81,1.81,0,0,1,1.808,1.808Zm1.4-18.819a23.412,23.412,0,0,1,5.475-8.6l.447,4.938,4.817,3.211-1.528,3.052,6.168,10.795H37.163V49.821a5.406,5.406,0,0,0-2.22-4.354ZM63.785,58.861l6.168-10.793-1.528-3.052L73.242,41.8l.447-4.945a23.387,23.387,0,0,1,5.481,8.6,5.4,5.4,0,0,0-2.226,4.358v9.041Zm45.705,5.425a1.81,1.81,0,0,1-1.808,1.808h-6.464l-5.153,8.853a.627.627,0,0,1-1.04-.414V66.094H82.368a1.81,1.81,0,0,1-1.808-1.808V49.821a1.81,1.81,0,0,1,1.808-1.808h25.314a1.81,1.81,0,0,1,1.808,1.808ZM8.233,51.629h21.7v3.616H8.233Zm0,7.233H22.7v3.616H8.233Zm18.082,0h3.616v3.616H26.314Zm32.547-21.7H55.245V33.547h3.616ZM55.245,44.4V40.78h3.616V44.4Z" transform="translate(-1 -1)" fill="#fff"/>
</svg>
