<svg xmlns="http://www.w3.org/2000/svg" width="34.613" height="34.613" viewBox="0 0 34.613 34.613">
  <path id="money-bag" d="M28.913,22.773a.559.559,0,0,0-.558-.558,1.671,1.671,0,0,1-.558-3.247v-.661h1.117v.661a1.673,1.673,0,0,1,1.117,1.572H28.913a.558.558,0,1,0-.558.558,1.671,1.671,0,0,1,.558,3.247v.661H27.8v-.661a1.673,1.673,0,0,1-1.117-1.572H27.8a.558.558,0,0,0,1.117,0Zm-.558-6.141a4.973,4.973,0,0,0-3.078,1.058l.686.882a3.864,3.864,0,0,1,2.393-.824,3.913,3.913,0,0,1,3.908,3.908,3.869,3.869,0,0,1-.823,2.393l.882.685a4.974,4.974,0,0,0,1.058-3.078A5.03,5.03,0,0,0,28.355,16.632Zm0,8.932a3.913,3.913,0,0,1-3.908-3.908,3.863,3.863,0,0,1,.824-2.393l-.882-.686a4.973,4.973,0,0,0-1.059,3.079,5.03,5.03,0,0,0,5.024,5.024,4.973,4.973,0,0,0,3.078-1.058l-.685-.882A3.866,3.866,0,0,1,28.355,25.564Zm7.258-3.908a7.249,7.249,0,0,1-12.28,5.227c.052.223.1.453.154.669l.716,2.625a9.429,9.429,0,0,0,4.152.969v1.117a10.543,10.543,0,0,1-3.915-.758c0,.034.007.068.007.1a4.009,4.009,0,0,1-4,4H5a4,4,0,0,1-3.863-5.059l.819-3a20.307,20.307,0,0,0,.715-5.338,10.055,10.055,0,0,1,5.9-9.143,1.652,1.652,0,0,1-.492-2.522L4.35,6.814V4.35H7.372l.641.641.4-1.2h3.194V1H13l1.525,2.034L16.073,2l2.394,1.6-.529,1.058,2.043,1.022V7.372l-2.9,2.9a1.658,1.658,0,0,1-.2,2.792,10.039,10.039,0,0,1,5.071,5.19,7.255,7.255,0,0,1,13.666,3.4ZM5.466,6.352,9.077,9.962a1.679,1.679,0,0,1,.3-.03h.473L9.38,6.662l1.1-.158.49,3.428h2.373l.5-3.977,1.108.138-.48,3.839h1.369L18.865,6.91v-.54l-1.425-.712-.867,1.734-1-.5,1.454-2.909-.955-.637-1.8,1.2L12.724,2.489V7.7H11.607V4.908H9.218L8.5,7.058,6.91,5.466H5.466Zm10.607,5.814a.558.558,0,0,0,0-1.117h-6.7a.558.558,0,0,0,0,1.117Zm4.3,10.771-.789.789-.6-.6a9.487,9.487,0,0,0,3.829,6.22l-.41-1.5a21.445,21.445,0,0,1-.588-3.043c-.009-.019-.015-.039-.025-.059q-.142-.3-.255-.612c-.018-.049-.036-.1-.053-.145-.065-.19-.12-.385-.169-.582-.016-.064-.035-.128-.05-.192-.041-.188-.071-.379-.1-.571-.009-.069-.024-.136-.031-.2a7.526,7.526,0,0,1-.043-.782,7.3,7.3,0,0,1,.056-.86c.005-.04.013-.081.018-.121a7.238,7.238,0,0,1,.149-.774c0-.015,0-.028.008-.043A8.927,8.927,0,0,0,3.791,22.214a21.418,21.418,0,0,1-.754,5.631l-.819,3A2.889,2.889,0,0,0,5,34.5H20.442a2.869,2.869,0,0,0,2.807-3.548,10.623,10.623,0,0,1-5.418-8.027l-.8.8-.789-.789,2.069-2.07Zm14.12-1.28a6.14,6.14,0,0,0-12.012-1.8v.005l-.036.13-.005.02a6.4,6.4,0,0,0-.159.758c-.005.035-.012.07-.016.106a5.922,5.922,0,0,0-.055.778,6.14,6.14,0,0,0,.039.674c.007.059.018.116.027.175.023.167.05.334.088.5.012.054.027.106.041.16.045.175.1.349.156.52.012.036.026.07.039.106.073.194.155.386.248.575A6.135,6.135,0,0,0,34.5,21.656Zm-22.8-6.062a6.792,6.792,0,0,1,1.032-.079V14.4a7.932,7.932,0,0,0-1.2.092Zm-6.784,6.62a22.546,22.546,0,0,1-.793,5.925l1.077.293a23.67,23.67,0,0,0,.832-6.219,6.685,6.685,0,0,1,4.638-6.375l-.344-1.062A7.8,7.8,0,0,0,4.908,22.214ZM29.472,32.263h1.117V31.147H29.472Zm2.233,0h1.117V31.147H31.7ZM34.5,7.7h1.117V6.583H34.5ZM33.38,6.583H32.263V7.7H33.38Zm-2.233,0H22.214V7.7h8.932Zm3.35,3.35h1.117V8.816H34.5Zm-2.233,0H33.38V8.816H32.263ZM31.147,8.816H22.214V9.932h8.932Zm3.35,3.35h1.117V11.049H34.5Zm-2.233,0H33.38V11.049H32.263Zm-10.049,0h8.932V11.049H22.214Z" transform="translate(-1 -1)" fill="#fff"/>
</svg>
