<svg id="listed_companies" xmlns="http://www.w3.org/2000/svg" width="57.024" height="57.024" viewBox="0 0 57.024 57.024">
  <g id="Group_10817" data-name="Group 10817" transform="translate(19.806 18.782)">
    <g id="Group_10816" data-name="Group 10816" transform="translate(0 0)">
      <rect id="Rectangle_288" data-name="Rectangle 288" width="2" height="2" transform="translate(-0.303 -0.105)" fill="#fff"/>
    </g>
  </g>
  <g id="Group_10819" data-name="Group 10819" transform="translate(19.806 22.879)">
    <g id="Group_10818" data-name="Group 10818" transform="translate(0 0)">
      <rect id="Rectangle_289" data-name="Rectangle 289" width="2" height="2" transform="translate(-0.303 -0.202)" fill="#fff"/>
    </g>
  </g>
  <g id="Group_10821" data-name="Group 10821" transform="translate(19.806 26.463)">
    <g id="Group_10820" data-name="Group 10820" transform="translate(0 0)">
      <rect id="Rectangle_290" data-name="Rectangle 290" width="2" height="2" transform="translate(-0.303 0.213)" fill="#fff"/>
    </g>
  </g>
  <g id="Group_10823" data-name="Group 10823" transform="translate(19.806 30.56)">
    <g id="Group_10822" data-name="Group 10822" transform="translate(0 0)">
      <rect id="Rectangle_291" data-name="Rectangle 291" width="2" height="1" transform="translate(-0.303 0.117)" fill="#fff"/>
    </g>
  </g>
  <g id="Group_10825" data-name="Group 10825" transform="translate(23.903 18.782)">
    <g id="Group_10824" data-name="Group 10824" transform="translate(0 0)">
      <rect id="Rectangle_292" data-name="Rectangle 292" width="2" height="2" transform="translate(-0.4 -0.105)" fill="#fff"/>
    </g>
  </g>
  <g id="Group_10827" data-name="Group 10827" transform="translate(23.903 22.879)">
    <g id="Group_10826" data-name="Group 10826" transform="translate(0 0)">
      <rect id="Rectangle_293" data-name="Rectangle 293" width="2" height="2" transform="translate(-0.4 -0.202)" fill="#fff"/>
    </g>
  </g>
  <g id="Group_10829" data-name="Group 10829" transform="translate(23.903 26.463)">
    <g id="Group_10828" data-name="Group 10828" transform="translate(0 0)">
      <rect id="Rectangle_294" data-name="Rectangle 294" width="2" height="2" transform="translate(-0.4 0.213)" fill="#fff"/>
    </g>
  </g>
  <g id="Group_10831" data-name="Group 10831" transform="translate(23.903 30.56)">
    <g id="Group_10830" data-name="Group 10830" transform="translate(0 0)">
      <rect id="Rectangle_295" data-name="Rectangle 295" width="2" height="1" transform="translate(-0.4 0.117)" fill="#fff"/>
    </g>
  </g>
  <g id="Group_10833" data-name="Group 10833" transform="translate(27.488 18.782)">
    <g id="Group_10832" data-name="Group 10832" transform="translate(0 0)">
      <rect id="Rectangle_296" data-name="Rectangle 296" width="2" height="2" transform="translate(0.016 -0.105)" fill="#fff"/>
    </g>
  </g>
  <g id="Group_10835" data-name="Group 10835" transform="translate(27.488 22.879)">
    <g id="Group_10834" data-name="Group 10834" transform="translate(0 0)">
      <rect id="Rectangle_297" data-name="Rectangle 297" width="2" height="2" transform="translate(0.016 -0.202)" fill="#fff"/>
    </g>
  </g>
  <g id="Group_10837" data-name="Group 10837" transform="translate(27.488 26.463)">
    <g id="Group_10836" data-name="Group 10836" transform="translate(0 0)">
      <rect id="Rectangle_298" data-name="Rectangle 298" width="2" height="2" transform="translate(0.016 0.213)" fill="#fff"/>
    </g>
  </g>
  <g id="Group_10839" data-name="Group 10839" transform="translate(27.488 30.56)">
    <g id="Group_10838" data-name="Group 10838" transform="translate(0 0)">
      <rect id="Rectangle_299" data-name="Rectangle 299" width="2" height="1" transform="translate(0.016 0.117)" fill="#fff"/>
    </g>
  </g>
  <g id="Group_10841" data-name="Group 10841" transform="translate(31.584 18.782)">
    <g id="Group_10840" data-name="Group 10840" transform="translate(0 0)">
      <rect id="Rectangle_300" data-name="Rectangle 300" width="2" height="2" transform="translate(-0.081 -0.105)" fill="#fff"/>
    </g>
  </g>
  <g id="Group_10843" data-name="Group 10843" transform="translate(23.903 15.197)">
    <g id="Group_10842" data-name="Group 10842" transform="translate(0 0)">
      <rect id="Rectangle_301" data-name="Rectangle 301" width="2" height="2" transform="translate(-0.4 0.479)" fill="#fff"/>
    </g>
  </g>
  <g id="Group_10845" data-name="Group 10845" transform="translate(27.488 15.197)">
    <g id="Group_10844" data-name="Group 10844" transform="translate(0 0)">
      <rect id="Rectangle_302" data-name="Rectangle 302" width="2" height="2" transform="translate(0.016 0.479)" fill="#fff"/>
    </g>
  </g>
  <g id="Group_10847" data-name="Group 10847" transform="translate(31.584 15.197)">
    <g id="Group_10846" data-name="Group 10846" transform="translate(0 0)">
      <rect id="Rectangle_303" data-name="Rectangle 303" width="2" height="2" transform="translate(-0.081 0.479)" fill="#fff"/>
    </g>
  </g>
  <g id="Group_10849" data-name="Group 10849" transform="translate(31.584 22.879)">
    <g id="Group_10848" data-name="Group 10848" transform="translate(0 0)">
      <rect id="Rectangle_304" data-name="Rectangle 304" width="2" height="2" transform="translate(-0.081 -0.202)" fill="#fff"/>
    </g>
  </g>
  <g id="Group_10851" data-name="Group 10851" transform="translate(31.584 26.463)">
    <g id="Group_10850" data-name="Group 10850" transform="translate(0 0)">
      <rect id="Rectangle_305" data-name="Rectangle 305" width="2" height="2" transform="translate(-0.081 0.213)" fill="#fff"/>
    </g>
  </g>
  <g id="Group_10853" data-name="Group 10853" transform="translate(31.584 30.56)">
    <g id="Group_10852" data-name="Group 10852" transform="translate(0 0)">
      <rect id="Rectangle_306" data-name="Rectangle 306" width="2" height="1" transform="translate(-0.081 0.117)" fill="#fff"/>
    </g>
  </g>
  <g id="Group_10855" data-name="Group 10855" transform="translate(35.169 18.782)">
    <g id="Group_10854" data-name="Group 10854" transform="translate(0 0)">
      <rect id="Rectangle_307" data-name="Rectangle 307" width="2" height="2" transform="translate(0.334 -0.105)" fill="#fff"/>
    </g>
  </g>
  <g id="Group_10857" data-name="Group 10857" transform="translate(35.169 22.879)">
    <g id="Group_10856" data-name="Group 10856" transform="translate(0 0)">
      <rect id="Rectangle_308" data-name="Rectangle 308" width="2" height="2" transform="translate(0.334 -0.202)" fill="#fff"/>
    </g>
  </g>
  <g id="Group_10859" data-name="Group 10859" transform="translate(35.169 26.463)">
    <g id="Group_10858" data-name="Group 10858" transform="translate(0 0)">
      <rect id="Rectangle_309" data-name="Rectangle 309" width="2" height="2" transform="translate(0.334 0.213)" fill="#fff"/>
    </g>
  </g>
  <g id="Group_10861" data-name="Group 10861" transform="translate(35.169 30.56)">
    <g id="Group_10860" data-name="Group 10860" transform="translate(0 0)">
      <rect id="Rectangle_310" data-name="Rectangle 310" width="2" height="1" transform="translate(0.334 0.117)" fill="#fff"/>
    </g>
  </g>
  <g id="Group_10863" data-name="Group 10863" transform="translate(0 0)">
    <g id="Group_10862" data-name="Group 10862">
      <path id="Path_10283" data-name="Path 10283" d="M56.074,14.256H41.817V.95A.95.95,0,0,0,40.868,0H16.157a.95.95,0,0,0-.95.949h0V14.256H.95a.95.95,0,0,0-.95.949H0V49.42a.95.95,0,0,0,.949.95H2.937a5.7,5.7,0,0,0-.086.95v4.752a.95.95,0,0,0,.949.95H53.222a.95.95,0,0,0,.95-.949h0V51.321a5.678,5.678,0,0,0-.086-.95h1.987a.95.95,0,0,0,.95-.949h0V15.206A.95.95,0,0,0,56.074,14.256ZM40.867,40.867a1.9,1.9,0,1,1-1.9-1.9A1.9,1.9,0,0,1,40.867,40.867Zm-22.809-1.9a1.9,1.9,0,1,1-1.9,1.9A1.9,1.9,0,0,1,18.057,38.966Zm-5.7,16.157h-7.6v-3.8a3.8,3.8,0,0,1,7.6,0Zm-5.7-11.4a1.9,1.9,0,1,1,1.9,1.9A1.9,1.9,0,0,1,6.653,43.718Zm5.846,3.5a5.729,5.729,0,0,0-1.2-.885,3.8,3.8,0,1,0-5.5,0A5.739,5.739,0,0,0,3.623,48.47H1.9V16.157H15.206V38.379a3.75,3.75,0,0,0,.1,5.1A5.719,5.719,0,0,0,12.5,47.214Zm9.36,7.909h-7.6V48.47a3.8,3.8,0,0,1,7.6,0Zm11.4,0h-9.5V48.47a4.752,4.752,0,0,1,9.5,0Zm-7.6-16.157a2.851,2.851,0,1,1,2.851,2.851A2.851,2.851,0,0,1,25.661,38.966ZM34.3,45.2a6.694,6.694,0,0,0-2.727-2.633,4.752,4.752,0,1,0-6.123,0A6.694,6.694,0,0,0,22.724,45.2a5.74,5.74,0,0,0-1.916-1.725,3.774,3.774,0,0,0-3.7-6.277V1.9H39.916V37.2a3.785,3.785,0,0,0-3.7,6.277A5.74,5.74,0,0,0,34.3,45.2Zm8.468,6.119v3.8h-7.6V48.47a3.8,3.8,0,1,1,7.6,0Zm9.5,3.8h-7.6v-3.8a3.8,3.8,0,0,1,7.6,0Zm-5.7-11.4a1.9,1.9,0,1,1,1.9,1.9A1.9,1.9,0,0,1,46.569,43.718Zm8.554,4.752H53.4a5.739,5.739,0,0,0-2.181-2.141,3.8,3.8,0,1,0-5.5,0,5.726,5.726,0,0,0-1.2.885,5.718,5.718,0,0,0-2.808-3.736,3.75,3.75,0,0,0,.1-5.1V16.157H55.123V48.47Z" transform="translate(0 0)" fill="#fff"/>
    </g>
  </g>
  <g id="Group_10865" data-name="Group 10865" transform="translate(44.899 21.855)">
    <g id="Group_10864" data-name="Group 10864" transform="translate(0 0)">
      <rect id="Rectangle_311" data-name="Rectangle 311" width="2" height="16" transform="translate(-0.396 -0.178)" fill="#fff"/>
    </g>
  </g>
  <g id="Group_10867" data-name="Group 10867" transform="translate(50.532 21.855)">
    <g id="Group_10866" data-name="Group 10866" transform="translate(0 0)">
      <rect id="Rectangle_312" data-name="Rectangle 312" width="2" height="16" transform="translate(-0.029 -0.178)" fill="#fff"/>
    </g>
  </g>
  <g id="Group_10869" data-name="Group 10869" transform="translate(4.955 21.855)">
    <g id="Group_10868" data-name="Group 10868" transform="translate(0 0)">
      <rect id="Rectangle_313" data-name="Rectangle 313" width="2" height="16" transform="translate(-0.452 -0.178)" fill="#fff"/>
    </g>
  </g>
  <g id="Group_10871" data-name="Group 10871" transform="translate(10.588 21.855)">
    <g id="Group_10870" data-name="Group 10870" transform="translate(0 0)">
      <rect id="Rectangle_314" data-name="Rectangle 314" width="2" height="16" transform="translate(-0.085 -0.178)" fill="#fff"/>
    </g>
  </g>
  <g id="Group_10873" data-name="Group 10873" transform="translate(21.859 3.802)">
    <g id="Group_10872" data-name="Group 10872">
      <path id="Path_10284" data-name="Path 10284" d="M196.356,32H184.95a.95.95,0,0,0-.95.949h0v7.6a.95.95,0,0,0,.949.95h11.406a.95.95,0,0,0,.95-.949h0v-7.6A.95.95,0,0,0,196.356,32Zm-.951,7.6h-9.5V33.9h9.5Z" transform="translate(-184 -32)" fill="#fff"/>
    </g>
  </g>
</svg>
