<svg xmlns="http://www.w3.org/2000/svg" width="51.025" height="30.455" viewBox="0 0 51.025 30.455">
  <g id="oman_1_" data-name="oman (1)" transform="translate(0 -103.201)">
    <g id="Group_10954" data-name="Group 10954" transform="translate(0 103.201)">
      <g id="Group_10953" data-name="Group 10953" transform="translate(0 0)">
        <path id="Path_10304" data-name="Path 10304" d="M43.536,115.183v2H33.75v-4.993H26.261v-3.994h5.392V103.2h-6.89v8.987H17.274v4.993H7.489v-2H0v18.473H51.025V115.183ZM26.261,104.7h3.894v2H26.261ZM5.991,132.158H1.5V116.681H5.991Zm7.139,0h-1.5v-3.245a.749.749,0,1,1,1.5,0v3.245Zm4.144,0H14.628v-3.245a2.247,2.247,0,1,0-4.493,0v3.245H7.489v-7.489h9.786Zm0-8.987H7.489v-4.493h9.786Zm10.484,8.987H23.266v-5.592h4.493Zm0-7.09H23.266v-3.582a3.627,3.627,0,0,1,2.247-3.358,3.627,3.627,0,0,1,2.247,3.358Zm4.493,7.09h-3V121.486a5.123,5.123,0,0,0-3.508-4.867l-.237-.079-.237.079a5.123,5.123,0,0,0-3.508,4.867v10.672h-3V113.686h2.5v1.448h1.5v-1.448h2v1.448h1.5v-1.448h2v1.448h1.5v-1.448h2.5v18.473Zm7.139,0h-1.5v-3.245a.749.749,0,1,1,1.5,0v3.245Zm4.144,0H40.889v-3.245a2.247,2.247,0,1,0-4.493,0v3.245H33.75v-7.489h9.786v7.489Zm0-8.987H33.75v-4.493h9.786v4.493Zm5.991,8.987H45.033V116.681h4.493Z" transform="translate(0 -103.201)" fill="#fff"/>
      </g>
    </g>
    <g id="Group_10956" data-name="Group 10956" transform="translate(2.996 122.922)">
      <g id="Group_10955" data-name="Group 10955" transform="translate(0 0)">
        <rect id="Rectangle_322" data-name="Rectangle 322" width="1.498" height="5.991" fill="#fff"/>
      </g>
    </g>
    <g id="Group_10958" data-name="Group 10958" transform="translate(2.996 118.928)">
      <g id="Group_10957" data-name="Group 10957" transform="translate(0 0)">
        <rect id="Rectangle_323" data-name="Rectangle 323" width="1.498" height="1.498" fill="#fff"/>
      </g>
    </g>
    <g id="Group_10960" data-name="Group 10960" transform="translate(46.531 122.922)">
      <g id="Group_10959" data-name="Group 10959" transform="translate(0 0)">
        <rect id="Rectangle_324" data-name="Rectangle 324" width="1.498" height="5.991" fill="#fff"/>
      </g>
    </g>
    <g id="Group_10962" data-name="Group 10962" transform="translate(46.531 118.928)">
      <g id="Group_10961" data-name="Group 10961" transform="translate(0 0)">
        <rect id="Rectangle_325" data-name="Rectangle 325" width="1.498" height="1.498" fill="#fff"/>
      </g>
    </g>
    <g id="Group_10964" data-name="Group 10964" transform="translate(24.763 127.915)">
      <g id="Group_10963" data-name="Group 10963" transform="translate(0 0)">
        <rect id="Rectangle_326" data-name="Rectangle 326" width="1.498" height="2.996" fill="#fff"/>
      </g>
    </g>
    <g id="Group_10966" data-name="Group 10966" transform="translate(24.763 119.926)">
      <g id="Group_10965" data-name="Group 10965" transform="translate(0 0)">
        <rect id="Rectangle_327" data-name="Rectangle 327" width="1.498" height="3.994" fill="#fff"/>
      </g>
    </g>
    <g id="Group_10968" data-name="Group 10968" transform="translate(11.633 120.276)">
      <g id="Group_10967" data-name="Group 10967" transform="translate(0 0)">
        <rect id="Rectangle_328" data-name="Rectangle 328" width="1.498" height="1.498" fill="#fff"/>
      </g>
    </g>
    <g id="Group_10970" data-name="Group 10970" transform="translate(14.628 120.276)">
      <g id="Group_10969" data-name="Group 10969" transform="translate(0 0)">
        <rect id="Rectangle_329" data-name="Rectangle 329" width="1.498" height="1.498" fill="#fff"/>
      </g>
    </g>
    <g id="Group_10972" data-name="Group 10972" transform="translate(8.637 120.276)">
      <g id="Group_10971" data-name="Group 10971" transform="translate(0 0)">
        <rect id="Rectangle_330" data-name="Rectangle 330" width="1.498" height="1.498" fill="#fff"/>
      </g>
    </g>
    <g id="Group_10974" data-name="Group 10974" transform="translate(37.894 120.276)">
      <g id="Group_10973" data-name="Group 10973" transform="translate(0 0)">
        <rect id="Rectangle_331" data-name="Rectangle 331" width="1.498" height="1.498" fill="#fff"/>
      </g>
    </g>
    <g id="Group_10976" data-name="Group 10976" transform="translate(40.889 120.276)">
      <g id="Group_10975" data-name="Group 10975" transform="translate(0 0)">
        <rect id="Rectangle_332" data-name="Rectangle 332" width="1.498" height="1.498" fill="#fff"/>
      </g>
    </g>
    <g id="Group_10978" data-name="Group 10978" transform="translate(34.898 120.276)">
      <g id="Group_10977" data-name="Group 10977" transform="translate(0 0)">
        <rect id="Rectangle_333" data-name="Rectangle 333" width="1.498" height="1.498" fill="#fff"/>
      </g>
    </g>
    <g id="Group_10980" data-name="Group 10980" transform="translate(19.97 116.332)">
      <g id="Group_10979" data-name="Group 10979">
        <rect id="Rectangle_334" data-name="Rectangle 334" width="1.498" height="1.997" fill="#fff"/>
      </g>
    </g>
    <g id="Group_10982" data-name="Group 10982" transform="translate(29.556 116.332)">
      <g id="Group_10981" data-name="Group 10981">
        <rect id="Rectangle_335" data-name="Rectangle 335" width="1.498" height="1.997" fill="#fff"/>
      </g>
    </g>
  </g>
</svg>
