<svg id="time" xmlns="http://www.w3.org/2000/svg" width="34.29" height="34.29" viewBox="0 0 34.29 34.29">
  <path id="Path_10288" data-name="Path 10288" d="M19.637,16.318a3.318,3.318,0,1,0-3.318,3.318A3.322,3.322,0,0,0,19.637,16.318Zm-5.531,0a2.212,2.212,0,1,1,2.212,2.212A2.214,2.214,0,0,1,14.106,16.318Z" transform="translate(-6.363 -6.363)" fill="#fff"/>
  <path id="Path_10289" data-name="Path 10289" d="M45.425,31.531A2.21,2.21,0,0,0,43.765,29.4V26H42.659v3.4a2.208,2.208,0,0,0,.553,4.346,2.183,2.183,0,0,0,1.117-.314l1.258,1.258.782-.782-1.258-1.258a2.183,2.183,0,0,0,.314-1.117Zm-2.212,1.106a1.106,1.106,0,1,1,1.106-1.106A1.107,1.107,0,0,1,43.212,32.637Z" transform="translate(-18.877 -12.173)" fill="#fff"/>
  <path id="Path_10290" data-name="Path 10290" d="M25.335,10.4a9.881,9.881,0,0,0-4.425,1.05V8.858l-1.457-.343a8.791,8.791,0,0,0-.764-1.843L19.478,5.4,16.512,2.433l-1.274.788A8.767,8.767,0,0,0,13.4,2.457L13.052,1H8.858L8.515,2.457a8.8,8.8,0,0,0-1.843.764L5.4,2.433,2.432,5.4l.789,1.273a8.791,8.791,0,0,0-.764,1.843L1,8.858v4.194l1.457.343a8.791,8.791,0,0,0,.764,1.843l-.789,1.273,2.513,2.512A4.383,4.383,0,0,0,6.854,23.49,8.31,8.31,0,0,0,1,31.419v1.659A2.214,2.214,0,0,0,3.212,35.29h4.7A1.928,1.928,0,0,0,9.3,34.708a1.928,1.928,0,0,0,1.383.582h4.7a2.214,2.214,0,0,0,2.212-2.212V31.419a8.31,8.31,0,0,0-5.854-7.928A4.412,4.412,0,0,0,13.7,19.34a8.774,8.774,0,0,0,1.543-.65l.268.165A9.949,9.949,0,1,0,25.335,10.4ZM34.156,20.91A8.8,8.8,0,0,1,31.961,26.2L30.419,24.66l-.782.782,1.543,1.543a8.8,8.8,0,0,1-5.291,2.194V26.994H24.782v2.184a8.8,8.8,0,0,1-5.291-2.194l1.543-1.543-.782-.782L18.709,26.2a8.8,8.8,0,0,1-2.195-5.292H18.7V19.8H16.514a8.8,8.8,0,0,1,2.195-5.292l1.543,1.543.782-.782L19.491,13.73a8.8,8.8,0,0,1,5.291-2.194v2.184h1.106V11.536a8.8,8.8,0,0,1,5.291,2.194l-1.543,1.543.782.782,1.543-1.543A8.8,8.8,0,0,1,34.156,19.8H31.972V20.91ZM11.227,24.5,9.3,26.707,7.365,24.5a7.017,7.017,0,0,1,3.863,0Zm5.259,6.919v1.659a1.107,1.107,0,0,1-1.106,1.106h-4.7a.83.83,0,0,1,0-1.659h4.148V31.419H13.721V29.206H12.614v2.212H10.679A1.928,1.928,0,0,0,9.3,32a1.928,1.928,0,0,0-1.383-.582H5.978V29.206H4.871v2.212H3.765v1.106H7.913a.83.83,0,0,1,0,1.659h-4.7a1.107,1.107,0,0,1-1.106-1.106V31.419a7.192,7.192,0,0,1,4.149-6.506L9.3,28.387l3.041-3.474A7.192,7.192,0,0,1,16.486,31.419Zm-7.19-8.3A3.318,3.318,0,1,1,12.614,19.8,3.322,3.322,0,0,1,9.3,23.123ZM5.425,10.955a5.531,5.531,0,1,1,6.643,5.405,4.41,4.41,0,0,0-4.105-.774,5.545,5.545,0,0,1-2.537-4.631ZM15.25,17.4l-.289.176a7.615,7.615,0,0,1-1.518.7,4.4,4.4,0,0,0-.517-.994,6.632,6.632,0,1,0-8.608-6.327,6.658,6.658,0,0,0,2.506,5.181,4.451,4.451,0,0,0-1.491,1.712l-1.5-1.5.68-1.1-.176-.29A7.679,7.679,0,0,1,3.445,12.8l-.081-.329-1.258-.3V9.734l1.257-.3.081-.329A7.686,7.686,0,0,1,4.338,6.95l.176-.29-.68-1.1L5.562,3.834l1.1.68.289-.176a7.685,7.685,0,0,1,2.159-.9l.329-.081.3-1.256h2.442l.3,1.257.329.081a7.669,7.669,0,0,1,2.159.9l.289.176,1.1-.68,1.727,1.727-.68,1.1.176.29a7.68,7.68,0,0,1,.894,2.159l.081.329,1.258.3v2.352A9.984,9.984,0,0,0,15.75,17.7Z" transform="translate(-1 -1)" fill="#fff"/>
</svg>
