<svg xmlns="http://www.w3.org/2000/svg" width="60.131" height="53.486" viewBox="0 0 60.131 53.486">
  <g id="team" transform="translate(5.046 -0.367)">
    <g id="Group_437" data-name="Group 437">
      <path id="Path_337" data-name="Path 337" d="M53.424,44.962l-.988-.352a25.035,25.035,0,0,0,7.7-17.866A24.683,24.683,0,0,0,54.924,11.7a.843.843,0,0,0-.15-.192,28.233,28.233,0,0,0-5.238-5.142,1.033,1.033,0,0,0-1.338.1.782.782,0,0,0,.108,1.19,26.649,26.649,0,0,1,4.3,4.064,46,46,0,0,1-7.115,1.758,28.625,28.625,0,0,0-2.731-5.464,20.036,20.036,0,0,0-4.928-5.356,29.706,29.706,0,0,1,7.985,3.315,1.025,1.025,0,0,0,1.318-.227.789.789,0,0,0-.255-1.173A32.6,32.6,0,0,0,30.065,0,31.847,31.847,0,0,0,8.806,7.833,25.173,25.173,0,0,0,0,26.743,25.028,25.028,0,0,0,7.707,44.621l-.975.34a4.908,4.908,0,0,0-3.414,4.654v3.026a.9.9,0,0,0,.949.845H18.242a1.056,1.056,0,0,0,.135-.01,1.058,1.058,0,0,0,.135.01h3.863a.85.85,0,1,0,0-1.689H19.461V48.856a4.212,4.212,0,0,1,2.851-4.03l.044-.014L26.979,43.2l.03.029,2.457,2.129a1.015,1.015,0,0,0,.662.24h.015a1.007,1.007,0,0,0,.669-.258l2.359-2.177,4.617,1.647.045.015a4.213,4.213,0,0,1,2.857,4.032V51.8H25.342a.85.85,0,1,0,0,1.689H55.884a.906.906,0,0,0,.949-.85V49.615A4.906,4.906,0,0,0,53.424,44.962Zm-2.873-1.025-.936-.334v-.481a4.56,4.56,0,0,0,2.207-2.435,2.524,2.524,0,0,0,2.472-2.379,2.3,2.3,0,0,0-.989-1.85v-1.5a5.976,5.976,0,0,0-5.588-5.644c.036-.573.061-1.149.073-1.727H58.214A23.617,23.617,0,0,1,50.551,43.937Zm-3.428-1.9h-.866a2.892,2.892,0,0,1-3.042-2.706V37.1h0a10.578,10.578,0,0,0,5.115-1.758A4.088,4.088,0,0,0,50.166,36.9V39.33A2.893,2.893,0,0,1,47.123,42.036Zm.593,1.656v.468l-1.058.976-.994-.861v-.584a5.579,5.579,0,0,0,.593.033h.866A5.547,5.547,0,0,0,47.716,43.692Zm-5.448-8.231h0c-.033,0-.065,0-.1,0l-.03,0c-.021,0-.043,0-.064.009l-.042.01-.049.011-.03.01v-.55a4.278,4.278,0,0,1,4.5-4h.454a4.277,4.277,0,0,1,4.5,4V35.5l-.054-.013-.026-.007c-1.324-.268-1.756-1.839-1.76-1.851a.906.906,0,0,0-.736-.641,1.009,1.009,0,0,0-.96.332C46.151,35.437,42.319,35.461,42.268,35.461Zm9.8,3.417V37.74a.655.655,0,0,1,0,1.138Zm1.652-25.742a23.125,23.125,0,0,1,4.5,12.762H47.789A38.262,38.262,0,0,0,46.05,15.092,46.467,46.467,0,0,0,53.717,13.136ZM45.89,25.9H36.17a8.139,8.139,0,0,0-5.155-2.255V16.381A95.991,95.991,0,0,0,44.176,15.4,36.658,36.658,0,0,1,45.89,25.9Zm-8.375,8.819a1.115,1.115,0,0,1-.89,1.044V33.673A1.116,1.116,0,0,1,37.515,34.717Zm-6.5-32.981c3.778.359,7.333,2.853,10.1,7.116A26.9,26.9,0,0,1,43.6,13.774a94.355,94.355,0,0,1-12.585.918V1.736Zm-.6,23.574c3.234,0,5.865,2.34,5.865,5.217v1.032l-.019-.013-.042-.028-.034-.02-.043-.023-.041-.019-.04-.017-.051-.018-.036-.012-.058-.015-.026-.007a3.565,3.565,0,0,1-2.38-2.475.906.906,0,0,0-.736-.641,1.009,1.009,0,0,0-.96.332c-2.223,2.734-7.135,2.762-7.2,2.762h0c-.033,0-.065,0-.1,0l-.03,0-.064.009-.04.009-.051.012-.045.015-.042.013-.051.022-.032.014c-.017.008-.033.018-.05.027l-.029.016-.045.029-.029.019-.025.02V30.527c0-2.877,2.631-5.217,5.865-5.217h.568ZM14.241,25.9a36.659,36.659,0,0,1,1.715-10.5,96.093,96.093,0,0,0,13.16.987v7.271A8.125,8.125,0,0,0,24.083,25.9c-.035,0-.07-.006-.105-.006H14.241Zm9.418,7.766v2.107a1.062,1.062,0,0,1,0-2.107ZM29.116,1.736V14.692a94.409,94.409,0,0,1-12.584-.921A26.916,26.916,0,0,1,19.02,8.852C21.783,4.588,25.338,2.095,29.116,1.736Zm-6.824.924a20.049,20.049,0,0,0-4.917,5.348,28.624,28.624,0,0,0-2.73,5.463,46.1,46.1,0,0,1-7.1-1.753A28.535,28.535,0,0,1,22.292,2.66ZM6.423,13.14a46.57,46.57,0,0,0,7.659,1.949A38.258,38.258,0,0,0,12.342,25.9H1.917A23.029,23.029,0,0,1,6.423,13.14Zm6.118,30.552a5.578,5.578,0,0,0,.593.033H14a5.546,5.546,0,0,0,.593-.033v.468l-1.058.976-.994-.861ZM14,42.036h-.866a2.892,2.892,0,0,1-3.042-2.706V37.1a10.573,10.573,0,0,0,5.115-1.759A4.089,4.089,0,0,0,17.042,36.9V39.33A2.892,2.892,0,0,1,14,42.036Zm2.443-8.4a.906.906,0,0,0-.736-.641,1.009,1.009,0,0,0-.959.332c-1.721,2.115-5.556,2.139-5.6,2.139h0c-.033,0-.065,0-.1,0l-.03,0-.064.009-.04.009L8.86,35.5l-.03.01v-.55a4.278,4.278,0,0,1,4.5-4h.454a4.277,4.277,0,0,1,4.5,4V35.5h0l-.056-.014-.025-.006C16.879,35.215,16.446,33.643,16.443,33.631ZM1.917,27.588H12.341c.012.582.037,1.163.073,1.739a5.962,5.962,0,0,0-5.483,5.632v1.494a2.3,2.3,0,0,0-1,1.856,2.528,2.528,0,0,0,2.5,2.38,4.56,4.56,0,0,0,2.206,2.433V43.6L9.6,43.96A23.612,23.612,0,0,1,1.917,27.588ZM8.192,37.722V38.9a.658.658,0,0,1,0-1.175Zm9.369,11.134V51.8H5.216V49.615a3.2,3.2,0,0,1,2.15-3.062l.044-.014,3.581-1.247,1.9,1.648a1.014,1.014,0,0,0,.662.24h.015a1.007,1.007,0,0,0,.668-.258l1.8-1.659,2.222.792A5.736,5.736,0,0,0,17.562,48.856Zm9.16-7.38-5.039,1.755a6.155,6.155,0,0,0-2.318,1.4L16.491,43.6v-.48A4.56,4.56,0,0,0,18.7,40.688a2.524,2.524,0,0,0,2.473-2.379,2.3,2.3,0,0,0-.989-1.85v-1.5c0-2.979-2.587-5.429-5.868-5.67-.036-.563-.061-1.132-.073-1.7h8.58a6.239,6.239,0,0,0-.74,2.939V32.5a2.685,2.685,0,0,0-1.25,2.22A2.96,2.96,0,0,0,23.9,37.492a5.479,5.479,0,0,0,2.819,3.123v.861Zm-7.781-2.6V37.74a.655.655,0,0,1,0,1.138Zm12.722,3.187v.054l-1.556,1.436-1.486-1.288V41.205a6.668,6.668,0,0,0,.98.073h1.083a6.694,6.694,0,0,0,.979-.073Zm-.979-2.476H29.6a3.844,3.844,0,0,1-4.043-3.6V33.012a12.867,12.867,0,0,0,6.7-2.34,4.934,4.934,0,0,0,2.469,2.148v3.173A3.843,3.843,0,0,1,30.683,39.59Zm10.109,5.044a6.158,6.158,0,0,0-2.32-1.4l-4.911-1.752v-.866a5.478,5.478,0,0,0,2.819-3.124,2.955,2.955,0,0,0,3.033-2.773,2.683,2.683,0,0,0-1.237-2.211V30.527a6.238,6.238,0,0,0-.74-2.939H45.89c-.012.571-.037,1.142-.074,1.708-3.23.285-5.762,2.716-5.762,5.663v1.495a2.3,2.3,0,0,0-1,1.856,2.528,2.528,0,0,0,2.5,2.38,4.56,4.56,0,0,0,2.206,2.433V43.6Zm.524-6.912V38.9a.658.658,0,0,1,0-1.175ZM54.935,51.8H42.59V48.856a5.735,5.735,0,0,0-.692-2.793l2.217-.772,1.9,1.648a1.014,1.014,0,0,0,.662.24h.015a1.007,1.007,0,0,0,.669-.258l1.8-1.659,3.573,1.274.043.014a3.2,3.2,0,0,1,2.158,3.065V51.8Z" transform="translate(-5.046 0.367)" fill="#d4af37"/>
    </g>
  </g>
</svg>
