<?xml version="1.0" encoding="utf-8"?>
<!-- Generator: Adobe Illustrator 23.0.6, SVG Export Plug-In . SVG Version: 6.00 Build 0)  -->
<svg version="1.1" id="Capa_1" xmlns="http://www.w3.org/2000/svg" xmlns:xlink="http://www.w3.org/1999/xlink" x="0px" y="0px"
	 viewBox="0 0 56 56" style="enable-background:new 0 0 56 56;" xml:space="preserve">
<style type="text/css">
	.st0{fill:#FFFFFF;}
</style>
<g>
	<path class="st0" d="M28,0C12.6,0,0,12.6,0,28s12.6,28,28,28s28-12.6,28-28S43.4,0,28,0z M28,54C13.7,54,2,42.3,2,28S13.7,2,28,2
		s26,11.7,26,26S42.3,54,28,54z"/>
	<path class="st0" d="M37.9,15.6H18.1c-0.5,0-0.8,0.6-0.8,1.4s0.4,1.4,0.8,1.4h19.7c0.5,0,0.8-0.6,0.8-1.4S38.3,15.6,37.9,15.6z"/>
	<path class="st0" d="M41.7,26.3H14.1c-0.6,0-1.1,0.7-1.1,1.6c0,0.9,0.5,1.6,1.1,1.6h27.5c0.6,0,1.1-0.7,1.1-1.6
		C42.8,27,42.3,26.3,41.7,26.3z"/>
	<path class="st0" d="M35.7,37.8H20.3c-0.4,0-0.6,0.5-0.6,1.2s0.3,1.2,0.6,1.2h15.3c0.4,0,0.6-0.5,0.6-1.2S36,37.8,35.7,37.8z"/>
</g>
</svg>
