<?xml version="1.0" encoding="utf-8"?>
<!-- Generator: Adobe Illustrator 23.0.6, SVG Export Plug-In . SVG Version: 6.00 Build 0)  -->
<svg version="1.1" id="health-insurance" xmlns="http://www.w3.org/2000/svg" xmlns:xlink="http://www.w3.org/1999/xlink" x="0px"
	 y="0px" viewBox="0 0 60.3 60.2" style="enable-background:new 0 0 60.3 60.2;" xml:space="preserve">
<style type="text/css">
	.st0{fill:#D4AF37;}
	.st1{display:none;fill:none;stroke:#000000;stroke-width:0.3;stroke-miterlimit:10;}
</style>
<path id="Path_323" class="st0" d="M20.6,8.7h1.8v1.6h-1.8V8.7z"/>
<path id="Path_324" class="st0" d="M27.7,8.7h1.8v1.6h-1.8V8.7z"/>
<path id="Path_325" class="st0" d="M28.5,27.3c1.2-0.8,1.9-2.2,1.9-3.6v-2.4c0-2.6-2.4-4.7-5.3-4.7s-5.3,2.1-5.3,4.7v2.4
	c0,1.4,0.7,2.8,1.9,3.6c-4.7,1.3-8.1,5.2-8.1,9.8v1.6h23.1v-1.6C36.6,32.5,33.2,28.6,28.5,27.3z M21.5,23.7v-2.4c0.2-2,2-3.4,4-3.1
	c1.6,0.2,2.9,1.5,3.1,3.1v2.4c-0.2,2-2,3.4-4,3.1C23,26.6,21.7,25.3,21.5,23.7z M15.3,37.1c0-4.8,4.4-8.7,9.8-8.7s9.8,3.9,9.8,8.7
	H15.3z"/>
<path id="Path_326" class="st0" d="M13.5,40.3h23.1v1.6H13.5V40.3z"/>
<path id="Path_327" class="st0" d="M34.8,46.6h1.8v1.6h-1.8V46.6z"/>
<path id="Path_328" class="st0" d="M13.5,46.6h19.6v1.6H13.5V46.6z"/>
<path id="Path_329" class="st0" d="M13.5,43.5h10.7v1.6H13.5V43.5z"/>
<path id="Path_330" class="st0" d="M25.9,43.5h10.7v1.6H25.9V43.5z"/>
<path id="Path_331" class="st0" d="M47.2,38.9l0.9,1.3c4.8-2.5,7.9-7.4,8-12.8v-0.6h-1.8v0.6C54.3,32.3,51.5,36.7,47.2,38.9z"/>
<path id="Path_332" class="st0" d="M54.4,23.7h1.8v1.6h-1.8V23.7z"/>
<path id="Path_333" class="st0" d="M44.6,23.7v2.4H42v4.7h2.7v2.4H50v-2.4h2.7v-4.7H50v-2.4H44.6z M50.8,27.7v1.6h-2.7v2.4h-1.8
	v-2.4h-2.7v-1.6h2.7v-2.4h1.8v2.4H50.8z"/>
<path id="Path_334" class="st0" d="M47.3,15.7l-1.8,0.7V8.7H34.8V7.1c-0.1-0.9-0.9-1.6-1.8-1.6H17c-0.9,0-1.7,0.7-1.8,1.6v1.6H4.6
	v45.9h40.9V43.4l1.8,1l2.7-1.5c6-3.3,9.7-9.2,9.7-15.5v-6.6L47.3,15.7z M43.7,10.2v6.8L42,17.7v-5.9h-7.1v-1.6H43.7z M6.4,53V10.2
	h8.9v1.6H8.1v39.6H42V41.2c0.6,0.4,1.2,0.9,1.8,1.2V53L6.4,53z M58,27.4c0,5.7-3.4,11.2-8.9,14.2l-1.8,1l-1.8-1
	c-5.5-3-8.9-8.4-8.9-14.2v-5.6l2.2-0.9L38,19.5l-3.2,1.3v6.6c0.1,4.6,2,9,5.3,12.2v10.2H9.9V13.4h21.4v-1.6H17V7.1h16v6.3h7.1v6.7
	l7.1-2.7L58,21.8L58,27.4z"/>
<rect y="-0.1" class="st1" width="60.4" height="60.4"/>
</svg>
