<?xml version="1.0" encoding="utf-8"?>
<!-- Generator: Adobe Illustrator 23.0.6, SVG Export Plug-In . SVG Version: 6.00 Build 0)  -->
<svg version="1.1" id="photo" xmlns="http://www.w3.org/2000/svg" xmlns:xlink="http://www.w3.org/1999/xlink" x="0px" y="0px"
	 viewBox="0 0 61.6 61.2" style="enable-background:new 0 0 61.6 61.2;" xml:space="preserve">
<style type="text/css">
	.st0{fill:#D4AF37;}
	.st1{display:none;fill:none;stroke:#000000;stroke-width:0.3;stroke-miterlimit:10;}
</style>
<path id="Path_335" class="st0" d="M60.7,5.2H8.6c-0.5,0-0.9,0.4-0.9,0.9c0,0,0,0,0,0v6.8H0.9c-0.5,0-0.9,0.4-0.9,0.9c0,0,0,0,0,0
	v40.5c0,0.5,0.4,0.9,0.9,0.9c0,0,0,0,0,0H53c0.5,0,0.9-0.4,0.9-0.9v0v-6.8h6.8c0.5,0,0.9-0.4,0.9-0.9v0V6.1
	C61.6,5.6,61.2,5.2,60.7,5.2C60.7,5.2,60.7,5.2,60.7,5.2L60.7,5.2z M1.8,53.4v-9.5l11.6-12.5l12.9,12.9c0.4,0.3,0.9,0.3,1.3,0
	l18.7-18.7l5.8,5.9v21.9H1.8z M59.8,45.7h-5.9V13.8c0-0.5-0.4-0.9-0.9-0.9l0,0H42.5c-0.5,0-0.9,0.4-0.9,0.9s0.4,0.9,0.9,0.9l0,0h9.6
	V29l-5.2-5.2c-0.3-0.4-0.9-0.4-1.3,0c0,0,0,0,0,0L27,42.4L14,29.5c-0.4-0.4-0.9-0.3-1.3,0c0,0,0,0,0,0L1.8,41.3V14.7h36.3
	c0.5,0,0.9-0.4,0.9-0.9s-0.4-0.9-0.9-0.9H9.5V7h50.3L59.8,45.7z"/>
<path id="Path_336" class="st0" d="M27,17.7c-3.2,0-5.7,2.6-5.7,5.7c0,3.2,2.6,5.7,5.7,5.7c3.2,0,5.7-2.6,5.7-5.7l0,0
	C32.7,20.3,30.1,17.7,27,17.7z M27,27.4c-2.2,0-3.9-1.8-3.9-3.9s1.8-3.9,3.9-3.9c2.2,0,3.9,1.8,3.9,3.9c0,0,0,0,0,0
	C30.9,25.6,29.1,27.4,27,27.4L27,27.4z"/>
<rect x="-0.4" y="-0.3" class="st1" width="61.4" height="61.7"/>
</svg>
