<?xml version="1.0" encoding="utf-8"?>
<!-- Generator: Adobe Illustrator 23.0.6, SVG Export Plug-In . SVG Version: 6.00 Build 0)  -->
<svg version="1.1" id="Capa_1" xmlns="http://www.w3.org/2000/svg" xmlns:xlink="http://www.w3.org/1999/xlink" x="0px" y="0px"
	 viewBox="0 0 348.1 348.1" style="enable-background:new 0 0 348.1 348.1;" xml:space="preserve">
<style type="text/css">
	.st0{fill:#08457E;}
</style>
<g>
	<g>
		<g>
			<path class="st0" d="M8.5,314.7l15.3,15l0.3-0.3c6.4,5,13.9,9.3,21.9,12.4c7.4,2.9,14.8,4.7,22.4,5.6c3.5,0.3,84.8,8,185.7-92.9
				c73-72.9,99.9-126.7,92.9-185.6c-0.9-7.3-2.7-14.6-5.6-22.3c-3.2-8-7.4-15.5-12.5-22l0.4-0.4L314.1,8.9
				C303-2.2,285.3-2.5,274.6,8.2L220.8,62c-10.7,10.7-10.4,28.4,0.7,39.5l8.9,8.9l18.2,18.1c-0.9,1.6-1.9,3.4-2.9,5.2
				c-9.5,17.2-22.5,40.6-47.2,65.3c-24.6,24.6-48,37.6-65.1,47.1c-1.8,1.1-3.6,2.1-5.3,3L101,222c-11.1-11-28.8-11.4-39.5-0.7
				L7.7,275.1C-3,285.8-2.6,303.5,8.5,314.7z"/>
		</g>
	</g>
</g>
</svg>
