<svg id="calendar" xmlns="http://www.w3.org/2000/svg" width="31.139" height="31.139" viewBox="0 0 31.139 31.139">
  <g id="Group_93" data-name="Group 93">
    <g id="Group_92" data-name="Group 92">
      <path id="Path_42" data-name="Path 42" d="M27.49,2.433h-1.46V0H23.6V2.433H7.542V0H5.109V2.433H3.649A3.653,3.653,0,0,0,0,6.082V27.49a3.653,3.653,0,0,0,3.649,3.649H27.49a3.653,3.653,0,0,0,3.649-3.649V6.082A3.653,3.653,0,0,0,27.49,2.433ZM28.707,27.49a1.218,1.218,0,0,1-1.216,1.216H3.649A1.218,1.218,0,0,1,2.433,27.49V11.434H28.707ZM28.707,9H2.433V6.082A1.218,1.218,0,0,1,3.649,4.866h1.46V7.3H7.542V4.866H23.6V7.3h2.433V4.866h1.46a1.218,1.218,0,0,1,1.216,1.216Z" fill="#fff"/>
    </g>
  </g>
  <g id="Group_95" data-name="Group 95" transform="translate(4.622 13.988)">
    <g id="Group_94" data-name="Group 94">
      <rect id="Rectangle_52" data-name="Rectangle 52" width="2.433" height="2.433" fill="#fff"/>
    </g>
  </g>
  <g id="Group_97" data-name="Group 97" transform="translate(9.488 13.988)">
    <g id="Group_96" data-name="Group 96">
      <rect id="Rectangle_53" data-name="Rectangle 53" width="2.433" height="2.433" fill="#fff"/>
    </g>
  </g>
  <g id="Group_99" data-name="Group 99" transform="translate(14.353 13.988)">
    <g id="Group_98" data-name="Group 98">
      <rect id="Rectangle_54" data-name="Rectangle 54" width="2.433" height="2.433" fill="#fff"/>
    </g>
  </g>
  <g id="Group_101" data-name="Group 101" transform="translate(19.219 13.988)">
    <g id="Group_100" data-name="Group 100">
      <rect id="Rectangle_55" data-name="Rectangle 55" width="2.433" height="2.433" fill="#fff"/>
    </g>
  </g>
  <g id="Group_103" data-name="Group 103" transform="translate(24.084 13.988)">
    <g id="Group_102" data-name="Group 102">
      <rect id="Rectangle_56" data-name="Rectangle 56" width="2.433" height="2.433" fill="#fff"/>
    </g>
  </g>
  <g id="Group_105" data-name="Group 105" transform="translate(4.622 18.854)">
    <g id="Group_104" data-name="Group 104">
      <rect id="Rectangle_57" data-name="Rectangle 57" width="2.433" height="2.433" fill="#fff"/>
    </g>
  </g>
  <g id="Group_107" data-name="Group 107" transform="translate(9.488 18.854)">
    <g id="Group_106" data-name="Group 106">
      <rect id="Rectangle_58" data-name="Rectangle 58" width="2.433" height="2.433" fill="#fff"/>
    </g>
  </g>
  <g id="Group_109" data-name="Group 109" transform="translate(14.353 18.854)">
    <g id="Group_108" data-name="Group 108">
      <rect id="Rectangle_59" data-name="Rectangle 59" width="2.433" height="2.433" fill="#fff"/>
    </g>
  </g>
  <g id="Group_111" data-name="Group 111" transform="translate(19.219 18.854)">
    <g id="Group_110" data-name="Group 110">
      <rect id="Rectangle_60" data-name="Rectangle 60" width="2.433" height="2.433" fill="#fff"/>
    </g>
  </g>
  <g id="Group_113" data-name="Group 113" transform="translate(4.622 23.719)">
    <g id="Group_112" data-name="Group 112">
      <rect id="Rectangle_61" data-name="Rectangle 61" width="2.433" height="2.433" fill="#fff"/>
    </g>
  </g>
  <g id="Group_115" data-name="Group 115" transform="translate(9.488 23.719)">
    <g id="Group_114" data-name="Group 114">
      <rect id="Rectangle_62" data-name="Rectangle 62" width="2.433" height="2.433" fill="#fff"/>
    </g>
  </g>
  <g id="Group_117" data-name="Group 117" transform="translate(14.353 23.719)">
    <g id="Group_116" data-name="Group 116">
      <rect id="Rectangle_63" data-name="Rectangle 63" width="2.433" height="2.433" fill="#fff"/>
    </g>
  </g>
  <g id="Group_119" data-name="Group 119" transform="translate(19.219 23.719)">
    <g id="Group_118" data-name="Group 118">
      <rect id="Rectangle_64" data-name="Rectangle 64" width="2.433" height="2.433" fill="#fff"/>
    </g>
  </g>
  <g id="Group_121" data-name="Group 121" transform="translate(24.084 18.854)">
    <g id="Group_120" data-name="Group 120">
      <rect id="Rectangle_65" data-name="Rectangle 65" width="2.433" height="2.433" fill="#fff"/>
    </g>
  </g>
</svg>
