<svg id="telemarketer" xmlns="http://www.w3.org/2000/svg" width="60.136" height="60.136" viewBox="0 0 60.136 60.136">
  <g id="Group_439" data-name="Group 439" transform="translate(28.873 18.09)">
    <g id="Group_438" data-name="Group 438">
      <path id="Path_338" data-name="Path 338" d="M248.039,154.481a1.194,1.194,0,1,0,.35.845A1.2,1.2,0,0,0,248.039,154.481Z" transform="translate(-246 -154.131)" fill="#d4af37"/>
    </g>
  </g>
  <g id="Group_441" data-name="Group 441">
    <g id="Group_440" data-name="Group 440">
      <path id="Path_339" data-name="Path 339" d="M42.615,25.066l-6.553-1.059V23A8.893,8.893,0,0,0,38.3,19.73a5.888,5.888,0,0,0,.567-11.72,8.972,8.972,0,0,0-17.841,0A5.888,5.888,0,0,0,21.6,19.73,8.892,8.892,0,0,0,23.842,23v1.006l-6.553,1.059A7.468,7.468,0,0,0,11,32.479v3.649a1.172,1.172,0,0,0,1.17,1.175H28.8v2.984H10.508a4.437,4.437,0,0,0-4.424,4.441v.941a7.254,7.254,0,1,0,2.34,0v-.941a2.09,2.09,0,0,1,2.084-2.092H28.8v3.03a7.256,7.256,0,1,0,2.34.005V42.635h4.616a1.175,1.175,0,0,0,0-2.349H31.137V37.3h16.6a1.172,1.172,0,0,0,1.17-1.175V32.479A7.468,7.468,0,0,0,42.615,25.066Zm-3.686-8.537V10.4a3.542,3.542,0,0,1,0,6.889ZM20.975,10.856v6.436a3.542,3.542,0,0,1,0-6.889Zm-8.807,42a4.914,4.914,0,1,1-4.914-4.933A4.929,4.929,0,0,1,12.168,52.854Zm17.784-50.5a6.655,6.655,0,0,1,6.506,5.341L34.479,9.06a5.392,5.392,0,0,1-3.081.963H23.315V9.012h0A6.658,6.658,0,0,1,29.952,2.349ZM23.315,16.465V12.371H31.4a7.716,7.716,0,0,0,4.409-1.378l.782-.541v6.013c0,.032,0,.063,0,.095A1.573,1.573,0,0,1,35.02,18.1H33.747a1.175,1.175,0,0,0,0,2.349H35.02c.072,0,.143,0,.214-.006A6.486,6.486,0,0,1,33.3,22.134a6.782,6.782,0,0,1-6.677.007l-.013-.008A6.529,6.529,0,0,1,23.315,16.465ZM34.866,52.854a4.914,4.914,0,1,1-4.914-4.933A4.929,4.929,0,0,1,34.866,52.854Zm11.7-17.9H13.338V32.479a5.131,5.131,0,0,1,4.323-5.093L25.2,26.168a1.173,1.173,0,0,0,.984-1.16v-.459a9.133,9.133,0,0,0,7.54,0v.459a1.173,1.173,0,0,0,.984,1.16l7.537,1.218a5.131,5.131,0,0,1,4.323,5.093Z" fill="#d4af37"/>
    </g>
  </g>
  <g id="Group_443" data-name="Group 443" transform="translate(43.41 39.945)">
    <g id="Group_442" data-name="Group 442">
      <path id="Path_340" data-name="Path 340" d="M382.513,348.474v-.957A4.522,4.522,0,0,0,378,343h-4.8a1.195,1.195,0,0,0,0,2.389H378a2.13,2.13,0,0,1,2.128,2.128v.957a7.407,7.407,0,1,0,2.389,0ZM381.319,360.8a5.018,5.018,0,1,1,5.018-5.018A5.023,5.023,0,0,1,381.319,360.8Z" transform="translate(-372 -343)" fill="#d4af37"/>
    </g>
  </g>
  <g id="Group_445" data-name="Group 445" transform="translate(39.242 40.258)">
    <g id="Group_444" data-name="Group 444">
      <path id="Path_341" data-name="Path 341" d="M336.378,343.35a1.194,1.194,0,1,0,.35.845A1.2,1.2,0,0,0,336.378,343.35Z" transform="translate(-334.34 -343)" fill="#d4af37"/>
    </g>
  </g>
</svg>
