<svg xmlns="http://www.w3.org/2000/svg" width="65.236" height="65.236" viewBox="0 0 65.236 65.236">
  <path id="corporate" d="M59.923,10.034,55.1,5.209H47.3V4.157A3.16,3.16,0,0,0,44.14,1H23.1A3.16,3.16,0,0,0,19.94,4.157V5.209h-7.8L7.313,10.034V19.94H1v46.3H66.236V19.94H59.923ZM55.714,19.94V13.626H49.4V19.94H47.3V11.522H57.819V19.94Zm-2.1,0h-2.1V15.731h2.1Zm.617-12.626,2.1,2.1H47.3v-2.1ZM23.1,3.1H44.14a1.054,1.054,0,0,1,1.052,1.052V19.94H22.044V4.157A1.054,1.054,0,0,1,23.1,3.1ZM13.01,7.313h6.93v2.1H10.905ZM9.418,11.522H19.94V19.94h-2.1V13.626H11.522V19.94h-2.1Zm6.313,8.418h-2.1V15.731h2.1ZM3.1,64.132V30.462H64.132v33.67ZM64.132,28.357H3.1V22.044H64.132ZM32.566,5.209H24.148V17.835h8.418Zm-2.1,10.522H26.253V7.313h4.209ZM43.088,5.209H34.67V17.835h8.418Zm-2.1,10.522H36.775V7.313h4.209ZM7.313,26.253h-2.1v-2.1h2.1Zm4.209,0h-2.1v-2.1h2.1Zm4.209,0h-2.1v-2.1h2.1ZM19.62,45.947a6.313,6.313,0,1,0-7.778,0,10.53,10.53,0,0,0-6.633,9.768v6.313H26.253V55.714A10.53,10.53,0,0,0,19.62,45.947Zm-2.881,8.324-1.008,1.008-1.008-1.008.7-6.958c.1,0,.206-.016.311-.016s.207.012.311.016ZM11.522,40.984a4.209,4.209,0,1,1,4.209,4.209,4.213,4.213,0,0,1-4.209-4.209Zm12.626,18.94h-2.1V51.506h-2.1v8.418H11.522V51.506h-2.1v8.418h-2.1V55.714a8.431,8.431,0,0,1,5.955-8.048l-.739,7.387,3.2,3.2,3.2-3.2-.739-7.387a8.431,8.431,0,0,1,5.955,8.048Zm22.1-27.357H62.028v2.1H46.245Zm-2.1,2.1h-2.1v-2.1h2.1Zm-4.209,0H28.357v-2.1H39.931Zm4.209,4.209H28.357v-2.1H44.14Zm13.679,0H46.245v-2.1H57.819Zm2.1-2.1h2.1v2.1h-2.1ZM49.4,40.984H28.357V55.714H40.984v6.313H62.028V47.3H49.4ZM30.462,53.61V43.088H47.3V47.3H40.984V53.61Zm29.462,6.313H43.088V49.4H59.923ZM47.3,53.61h-2.1v-2.1h2.1Zm4.209,0H49.4v-2.1h2.1Zm4.209,0h-2.1v-2.1h2.1ZM32.566,49.4h2.1v2.1h-2.1Zm4.209,0h2.1v2.1h-2.1Z" transform="translate(-1 -1)" fill="#fff"/>
</svg>
