<svg xmlns="http://www.w3.org/2000/svg" width="100" height="100" viewBox="0 0 100 100">
  <g id="Group_685" data-name="Group 685" transform="translate(0.4)">
    <path id="Path_10304" data-name="Path 10304" d="M50,0A50,50,0,1,1,0,50,50,50,0,0,1,50,0Z" transform="translate(-0.4)" fill="#0c8e38"/>
    <g id="Group_414" data-name="Group 414" transform="translate(26 14)">
      <g id="Group_401" data-name="Group 401" transform="translate(0 41)">
        <text id="Companies" transform="translate(22.6 8)" fill="#fff" font-size="8" font-family="Roboto-Regular, Roboto"><tspan x="-20.17" y="0">Companies</tspan></text>
        <text id="_20" data-name="20" transform="translate(23.6 29)" fill="#fff" font-size="12" font-family="Roboto-Regular, Roboto"><tspan x="-6.738" y="0">20</tspan></text>
      </g>
      <path id="city-solid" d="M29.347,9.147H22.868v-8A1.143,1.143,0,0,0,21.725,0h-6.86a1.143,1.143,0,0,0-1.143,1.143v3.43H10.672V.762A.762.762,0,0,0,9.909,0H9.147a.762.762,0,0,0-.762.762V4.574H5.336V.762A.762.762,0,0,0,4.574,0H3.811a.762.762,0,0,0-.762.762V4.574H1.143A1.143,1.143,0,0,0,0,5.717V22.868a1.525,1.525,0,0,0,1.525,1.525H28.966a1.525,1.525,0,0,0,1.525-1.525V10.291A1.143,1.143,0,0,0,29.347,9.147ZM6.1,19.247a.572.572,0,0,1-.572.572H3.621a.572.572,0,0,1-.572-.572V17.342a.572.572,0,0,1,.572-.572H5.526a.572.572,0,0,1,.572.572Zm0-4.574a.572.572,0,0,1-.572.572H3.621a.572.572,0,0,1-.572-.572V12.768a.572.572,0,0,1,.572-.572H5.526a.572.572,0,0,1,.572.572Zm0-4.574a.572.572,0,0,1-.572.572H3.621a.572.572,0,0,1-.572-.572V8.194a.572.572,0,0,1,.572-.572H5.526a.572.572,0,0,1,.572.572Zm6.1,9.147a.572.572,0,0,1-.572.572H9.719a.572.572,0,0,1-.572-.572V17.342a.572.572,0,0,1,.572-.572h1.906a.572.572,0,0,1,.572.572Zm0-4.574a.572.572,0,0,1-.572.572H9.719a.572.572,0,0,1-.572-.572V12.768a.572.572,0,0,1,.572-.572h1.906a.572.572,0,0,1,.572.572Zm0-4.574a.572.572,0,0,1-.572.572H9.719a.572.572,0,0,1-.572-.572V8.194a.572.572,0,0,1,.572-.572h1.906a.572.572,0,0,1,.572.572Zm7.623,4.574a.572.572,0,0,1-.572.572H17.342a.572.572,0,0,1-.572-.572V12.768a.572.572,0,0,1,.572-.572h1.906a.572.572,0,0,1,.572.572Zm0-4.574a.572.572,0,0,1-.572.572H17.342a.572.572,0,0,1-.572-.572V8.194a.572.572,0,0,1,.572-.572h1.906a.572.572,0,0,1,.572.572Zm0-4.574a.572.572,0,0,1-.572.572H17.342a.572.572,0,0,1-.572-.572V3.621a.572.572,0,0,1,.572-.572h1.906a.572.572,0,0,1,.572.572Zm7.623,13.721a.572.572,0,0,1-.572.572H24.964a.572.572,0,0,1-.572-.572V17.342a.572.572,0,0,1,.572-.572H26.87a.572.572,0,0,1,.572.572Zm0-4.574a.572.572,0,0,1-.572.572H24.964a.572.572,0,0,1-.572-.572V12.768a.572.572,0,0,1,.572-.572H26.87a.572.572,0,0,1,.572.572Z" transform="translate(7.109 11.529)" fill="#fff"/>
    </g>
  </g>
</svg>
