<svg xmlns="http://www.w3.org/2000/svg" width="100" height="100" viewBox="0 0 100 100">
  <g id="Group_684" data-name="Group 684" transform="translate(-0.4)">
    <path id="Path_10306" data-name="Path 10306" d="M50,0A50,50,0,1,1,0,50,50,50,0,0,1,50,0Z" transform="translate(0.4)" fill="#08457e"/>
    <g id="Group_408" data-name="Group 408" transform="translate(26.769 30.013)">
      <g id="Group_407" data-name="Group 407" transform="translate(-0.368 27.632)">
        <text id="Investment_Funds" data-name="Investment Funds" transform="translate(24 6.355)" fill="#fff" font-size="6" font-family="Roboto-Regular, Roboto"><tspan x="-23.811" y="0">Investment Funds</tspan></text>
        <text id="_23" data-name="23" transform="translate(24 23.355)" fill="#fff" font-size="9" font-family="Roboto-Regular, Roboto"><tspan x="-5.054" y="0">23</tspan></text>
      </g>
    </g>
    <path id="money-bag" d="M23.455,18.516a.45.45,0,0,0-.449-.449,1.344,1.344,0,0,1-.449-2.612v-.532h.9v.532a1.346,1.346,0,0,1,.9,1.265h-.9a.449.449,0,1,0-.449.449,1.344,1.344,0,0,1,.449,2.612v.532h-.9v-.532a1.346,1.346,0,0,1-.9-1.265h.9a.449.449,0,0,0,.9,0Zm-.449-4.94a4,4,0,0,0-2.476.851l.552.71a3.109,3.109,0,0,1,1.925-.663,3.148,3.148,0,0,1,3.144,3.144,3.113,3.113,0,0,1-.662,1.925l.71.551a4,4,0,0,0,.851-2.476,4.047,4.047,0,0,0-4.043-4.042Zm0,7.186a3.148,3.148,0,0,1-3.144-3.144,3.108,3.108,0,0,1,.663-1.925l-.71-.552a4,4,0,0,0-.852,2.477A4.047,4.047,0,0,0,23,21.659a4,4,0,0,0,2.476-.851l-.551-.71A3.11,3.11,0,0,1,23.006,20.761Zm5.839-3.144a5.832,5.832,0,0,1-9.879,4.205c.042.179.08.364.124.538l.576,2.112a7.586,7.586,0,0,0,3.34.78v.9a8.482,8.482,0,0,1-3.15-.61c0,.027.006.055.006.08a3.225,3.225,0,0,1-3.218,3.218H4.217a3.218,3.218,0,0,1-3.108-4.07l.659-2.413a16.337,16.337,0,0,0,.575-4.294A8.089,8.089,0,0,1,7.09,10.706a1.329,1.329,0,0,1-.4-2.029l-3-3V3.7H6.125l.516.516.322-.965h2.57V1h1.121L11.88,2.636,13.125,1.8l1.926,1.287-.426.851,1.644.822V6.126L13.936,8.459a1.334,1.334,0,0,1-.161,2.246,8.076,8.076,0,0,1,4.08,4.175,5.837,5.837,0,0,1,10.994,2.735ZM4.592,5.306,7.5,8.21a1.351,1.351,0,0,1,.241-.024h.381L7.74,5.555l.885-.127L9.02,8.186h1.909l.4-3.2.891.111-.386,3.088h1.1l2.434-2.431V5.32l-1.146-.573-.7,1.395-.8-.4,1.17-2.34-.768-.512-1.448.965L10.431,2.2V6.39h-.9V4.144H7.61l-.578,1.73L5.753,4.593H4.592Zm8.533,4.677a.449.449,0,1,0,0-.9H7.735a.449.449,0,1,0,0,.9Zm3.459,8.665-.635.635-.483-.483a7.632,7.632,0,0,0,3.08,5l-.33-1.207a17.252,17.252,0,0,1-.473-2.448c-.007-.015-.012-.031-.02-.047q-.114-.241-.205-.492c-.014-.039-.029-.08-.043-.117-.052-.153-.1-.31-.136-.468-.013-.051-.028-.1-.04-.154-.033-.151-.057-.3-.08-.459-.007-.056-.019-.109-.025-.161a6.055,6.055,0,0,1-.035-.629,5.872,5.872,0,0,1,.045-.692c0-.032.01-.065.014-.1a5.823,5.823,0,0,1,.12-.623.066.066,0,0,1,.006-.035,7.182,7.182,0,0,0-14.1,1.892A17.228,17.228,0,0,1,2.638,22.6L1.979,25.01a2.324,2.324,0,0,0,2.238,2.94H16.64A2.308,2.308,0,0,0,18.9,25.1a8.546,8.546,0,0,1-4.359-6.458l-.644.644-.635-.635,1.664-1.665Zm11.359-1.03A4.94,4.94,0,0,0,18.28,16.17v0l-.029.1,0,.016a5.149,5.149,0,0,0-.128.61c0,.028-.01.056-.013.085a4.764,4.764,0,0,0-.044.626,4.939,4.939,0,0,0,.031.542c.006.047.014.093.022.141.019.134.04.269.071.4.01.043.022.085.033.129.036.141.08.281.125.418.01.029.021.056.031.085.059.156.125.311.2.463a4.936,4.936,0,0,0,9.374-2.179ZM9.6,12.742a5.464,5.464,0,0,1,.83-.064v-.9a6.381,6.381,0,0,0-.965.074ZM4.144,18.067a18.135,18.135,0,0,1-.638,4.765l.866.237a19.042,19.042,0,0,0,.669-5,5.378,5.378,0,0,1,3.731-5.129L8.5,12.083a6.275,6.275,0,0,0-4.353,5.983ZM23.9,26.151h.9v-.9h-.9Zm1.8,0h.9v-.9h-.9ZM27.949,6.39h.9v-.9h-.9Zm-.9-.9h-.9v.9h.9Zm-1.8,0H18.065v.9h7.186Zm2.7,2.7h.9v-.9h-.9Zm-1.8,0h.9v-.9h-.9Zm-.9-.9H18.065v.9h7.186Zm2.7,2.7h.9v-.9h-.9Zm-1.8,0h.9v-.9h-.9Zm-8.084,0h7.186v-.9H18.065Z" transform="translate(36.791 21.383)" fill="#fff"/>
  </g>
</svg>
