<svg xmlns="http://www.w3.org/2000/svg" width="100" height="100" viewBox="0 0 100 100">
  <g id="Group_685" data-name="Group 685" transform="translate(0.4)">
    <path id="Path_10307" data-name="Path 10307" d="M50,0A50,50,0,1,1,0,50,50,50,0,0,1,50,0Z" transform="translate(-0.4)" fill="#08457e"/>
    <g id="Group_410" data-name="Group 410" transform="translate(25.546 30.999)">
      <g id="Group_405" data-name="Group 405" transform="translate(0.054 27.749)">
        <text id="Listed_Companies" data-name="Listed Companies" transform="translate(24 6.252)" fill="#fff" font-size="6" font-family="Roboto-Regular, Roboto"><tspan x="-24.021" y="0">Listed Companies</tspan></text>
        <text id="_110" data-name="110" transform="translate(24 21.252)" fill="#fff" font-size="8" font-family="Roboto-Regular, Roboto"><tspan x="-6.738" y="0">110</tspan></text>
      </g>
    </g>
    <g id="listed_companies-2" data-name="listed_companies" transform="translate(36.107 22.507)">
      <g id="Group_10817" data-name="Group 10817" transform="translate(9.579 9.174)">
        <g id="Group_10816" data-name="Group 10816" transform="translate(0 0)">
          <rect id="Rectangle_288" data-name="Rectangle 288" width="0.982" height="0.982" fill="#fff"/>
        </g>
      </g>
      <g id="Group_10819" data-name="Group 10819" transform="translate(9.579 11.138)">
        <g id="Group_10818" data-name="Group 10818" transform="translate(0 0)">
          <rect id="Rectangle_289" data-name="Rectangle 289" width="0.982" height="0.982" fill="#fff"/>
        </g>
      </g>
      <g id="Group_10821" data-name="Group 10821" transform="translate(9.579 13.103)">
        <g id="Group_10820" data-name="Group 10820" transform="translate(0 0)">
          <rect id="Rectangle_290" data-name="Rectangle 290" width="0.982" height="0.982" fill="#fff"/>
        </g>
      </g>
      <g id="Group_10823" data-name="Group 10823" transform="translate(9.579 15.068)">
        <g id="Group_10822" data-name="Group 10822" transform="translate(0 0)">
          <rect id="Rectangle_291" data-name="Rectangle 291" width="0.982" height="0.491" fill="#fff"/>
        </g>
      </g>
      <g id="Group_10825" data-name="Group 10825" transform="translate(11.544 9.174)">
        <g id="Group_10824" data-name="Group 10824" transform="translate(0 0)">
          <rect id="Rectangle_292" data-name="Rectangle 292" width="0.982" height="0.982" fill="#fff"/>
        </g>
      </g>
      <g id="Group_10827" data-name="Group 10827" transform="translate(11.544 11.138)">
        <g id="Group_10826" data-name="Group 10826" transform="translate(0 0)">
          <rect id="Rectangle_293" data-name="Rectangle 293" width="0.982" height="0.982" fill="#fff"/>
        </g>
      </g>
      <g id="Group_10829" data-name="Group 10829" transform="translate(11.544 13.103)">
        <g id="Group_10828" data-name="Group 10828" transform="translate(0 0)">
          <rect id="Rectangle_294" data-name="Rectangle 294" width="0.982" height="0.982" fill="#fff"/>
        </g>
      </g>
      <g id="Group_10831" data-name="Group 10831" transform="translate(11.544 15.068)">
        <g id="Group_10830" data-name="Group 10830" transform="translate(0 0)">
          <rect id="Rectangle_295" data-name="Rectangle 295" width="0.982" height="0.491" fill="#fff"/>
        </g>
      </g>
      <g id="Group_10833" data-name="Group 10833" transform="translate(13.509 9.174)">
        <g id="Group_10832" data-name="Group 10832" transform="translate(0 0)">
          <rect id="Rectangle_296" data-name="Rectangle 296" width="0.982" height="0.982" fill="#fff"/>
        </g>
      </g>
      <g id="Group_10835" data-name="Group 10835" transform="translate(13.509 11.138)">
        <g id="Group_10834" data-name="Group 10834" transform="translate(0 0)">
          <rect id="Rectangle_297" data-name="Rectangle 297" width="0.982" height="0.982" fill="#fff"/>
        </g>
      </g>
      <g id="Group_10837" data-name="Group 10837" transform="translate(13.509 13.103)">
        <g id="Group_10836" data-name="Group 10836" transform="translate(0 0)">
          <rect id="Rectangle_298" data-name="Rectangle 298" width="0.982" height="0.982" fill="#fff"/>
        </g>
      </g>
      <g id="Group_10839" data-name="Group 10839" transform="translate(13.509 15.068)">
        <g id="Group_10838" data-name="Group 10838" transform="translate(0 0)">
          <rect id="Rectangle_299" data-name="Rectangle 299" width="0.982" height="0.491" fill="#fff"/>
        </g>
      </g>
      <g id="Group_10841" data-name="Group 10841" transform="translate(15.473 9.174)">
        <g id="Group_10840" data-name="Group 10840" transform="translate(0 0)">
          <rect id="Rectangle_300" data-name="Rectangle 300" width="0.982" height="0.982" fill="#fff"/>
        </g>
      </g>
      <g id="Group_10843" data-name="Group 10843" transform="translate(11.544 7.7)">
        <g id="Group_10842" data-name="Group 10842" transform="translate(0 0)">
          <rect id="Rectangle_301" data-name="Rectangle 301" width="0.982" height="0.982" fill="#fff"/>
        </g>
      </g>
      <g id="Group_10845" data-name="Group 10845" transform="translate(13.509 7.7)">
        <g id="Group_10844" data-name="Group 10844" transform="translate(0 0)">
          <rect id="Rectangle_302" data-name="Rectangle 302" width="0.982" height="0.982" fill="#fff"/>
        </g>
      </g>
      <g id="Group_10847" data-name="Group 10847" transform="translate(15.473 7.7)">
        <g id="Group_10846" data-name="Group 10846" transform="translate(0 0)">
          <rect id="Rectangle_303" data-name="Rectangle 303" width="0.982" height="0.982" fill="#fff"/>
        </g>
      </g>
      <g id="Group_10849" data-name="Group 10849" transform="translate(15.473 11.138)">
        <g id="Group_10848" data-name="Group 10848" transform="translate(0 0)">
          <rect id="Rectangle_304" data-name="Rectangle 304" width="0.982" height="0.982" fill="#fff"/>
        </g>
      </g>
      <g id="Group_10851" data-name="Group 10851" transform="translate(15.473 13.103)">
        <g id="Group_10850" data-name="Group 10850" transform="translate(0 0)">
          <rect id="Rectangle_305" data-name="Rectangle 305" width="0.982" height="0.982" fill="#fff"/>
        </g>
      </g>
      <g id="Group_10853" data-name="Group 10853" transform="translate(15.473 15.068)">
        <g id="Group_10852" data-name="Group 10852" transform="translate(0 0)">
          <rect id="Rectangle_306" data-name="Rectangle 306" width="0.982" height="0.491" fill="#fff"/>
        </g>
      </g>
      <g id="Group_10855" data-name="Group 10855" transform="translate(17.438 9.174)">
        <g id="Group_10854" data-name="Group 10854" transform="translate(0 0)">
          <rect id="Rectangle_307" data-name="Rectangle 307" width="0.982" height="0.982" fill="#fff"/>
        </g>
      </g>
      <g id="Group_10857" data-name="Group 10857" transform="translate(17.438 11.138)">
        <g id="Group_10856" data-name="Group 10856" transform="translate(0 0)">
          <rect id="Rectangle_308" data-name="Rectangle 308" width="0.982" height="0.982" fill="#fff"/>
        </g>
      </g>
      <g id="Group_10859" data-name="Group 10859" transform="translate(17.438 13.103)">
        <g id="Group_10858" data-name="Group 10858" transform="translate(0 0)">
          <rect id="Rectangle_309" data-name="Rectangle 309" width="0.982" height="0.982" fill="#fff"/>
        </g>
      </g>
      <g id="Group_10861" data-name="Group 10861" transform="translate(17.438 15.068)">
        <g id="Group_10860" data-name="Group 10860" transform="translate(0 0)">
          <rect id="Rectangle_310" data-name="Rectangle 310" width="0.982" height="0.491" fill="#fff"/>
        </g>
      </g>
      <g id="Group_10863" data-name="Group 10863">
        <g id="Group_10862" data-name="Group 10862">
          <path id="Path_10283" data-name="Path 10283" d="M27.542,7h-7V.467A.467.467,0,0,0,20.073,0H7.936a.467.467,0,0,0-.467.466h0V7h-7A.467.467,0,0,0,0,7.468H0V24.274a.467.467,0,0,0,.466.467h.976a2.8,2.8,0,0,0-.042.467v2.334a.467.467,0,0,0,.466.467H26.141a.467.467,0,0,0,.467-.466h0V25.208a2.789,2.789,0,0,0-.042-.467h.976a.467.467,0,0,0,.467-.466h0V7.469A.467.467,0,0,0,27.542,7ZM20.073,20.073a.933.933,0,1,1-.933-.933.933.933,0,0,1,.933.933ZM8.87,19.14a.933.933,0,1,1-.933.933.933.933,0,0,1,.933-.933Zm-2.8,7.936H2.337V25.209a1.866,1.866,0,0,1,3.733,0Zm-2.8-5.6a.929.929,0,1,1,.271.66.933.933,0,0,1-.271-.66ZM6.142,23.2a2.814,2.814,0,0,0-.589-.435,1.866,1.866,0,1,0-2.7,0A2.819,2.819,0,0,0,1.78,23.807H.933V7.936H7.469V18.851a1.842,1.842,0,0,0,.049,2.5A2.809,2.809,0,0,0,6.14,23.19Zm4.6,3.885H7.006V23.807a1.866,1.866,0,0,1,3.733,0Zm5.6,0H11.672V23.807a2.334,2.334,0,0,1,4.666,0Zm-3.733-7.936a1.4,1.4,0,1,1,.407.989,1.4,1.4,0,0,1-.407-.989ZM16.847,22.2a3.288,3.288,0,0,0-1.339-1.293,2.334,2.334,0,1,0-3.007,0A3.288,3.288,0,0,0,11.161,22.2a2.819,2.819,0,0,0-.941-.847A1.854,1.854,0,0,0,8.4,18.271V.933h11.2V18.272a1.859,1.859,0,0,0-1.817,3.083A2.819,2.819,0,0,0,16.847,22.2Zm4.159,3.005v1.866H17.274V23.807a1.866,1.866,0,0,1,3.733,0Zm4.666,1.866H21.94V25.207a1.866,1.866,0,1,1,3.733,0Zm-2.8-5.6a.933.933,0,1,1,.933.933.933.933,0,0,1-.933-.933Zm4.2,2.334h-.846a2.819,2.819,0,0,0-1.071-1.052,1.866,1.866,0,1,0-2.7,0,2.812,2.812,0,0,0-.589.435,2.809,2.809,0,0,0-1.379-1.835,1.842,1.842,0,0,0,.049-2.5V7.936h6.539V23.807Z" fill="#fff"/>
        </g>
      </g>
      <g id="Group_10865" data-name="Group 10865" transform="translate(21.859 10.647)">
        <g id="Group_10864" data-name="Group 10864" transform="translate(0 0)">
          <rect id="Rectangle_311" data-name="Rectangle 311" width="0.982" height="7.859" fill="#fff"/>
        </g>
      </g>
      <g id="Group_10867" data-name="Group 10867" transform="translate(24.806 10.647)">
        <g id="Group_10866" data-name="Group 10866" transform="translate(0 0)">
          <rect id="Rectangle_312" data-name="Rectangle 312" width="0.982" height="7.859" fill="#fff"/>
        </g>
      </g>
      <g id="Group_10869" data-name="Group 10869" transform="translate(2.212 10.647)">
        <g id="Group_10868" data-name="Group 10868" transform="translate(0 0)">
          <rect id="Rectangle_313" data-name="Rectangle 313" width="0.982" height="7.859" fill="#fff"/>
        </g>
      </g>
      <g id="Group_10871" data-name="Group 10871" transform="translate(5.159 10.647)">
        <g id="Group_10870" data-name="Group 10870" transform="translate(0 0)">
          <rect id="Rectangle_314" data-name="Rectangle 314" width="0.982" height="7.859" fill="#fff"/>
        </g>
      </g>
      <g id="Group_10873" data-name="Group 10873" transform="translate(10.737 1.867)">
        <g id="Group_10872" data-name="Group 10872">
          <path id="Path_10284" data-name="Path 10284" d="M190.069,32h-5.6a.467.467,0,0,0-.467.466h0V36.2a.467.467,0,0,0,.466.467h5.6a.467.467,0,0,0,.467-.466h0V32.467a.467.467,0,0,0-.466-.467Zm-.467,3.733h-4.666v-2.8H189.6Z" transform="translate(-184 -32)" fill="#fff"/>
        </g>
      </g>
    </g>
  </g>
</svg>
