<svg xmlns="http://www.w3.org/2000/svg" width="154" height="154" viewBox="0 0 154 154">
  <g id="Group_686" data-name="Group 686" transform="translate(-308 -1798)">
    <path id="Path_10303" data-name="Path 10303" d="M77,0A77,77,0,1,1,0,77,77,77,0,0,1,77,0Z" transform="translate(308 1798)" fill="#08457e"/>
    <g id="Group_414" data-name="Group 414" transform="translate(347.804 1820.193)">
      <g id="Group_401" data-name="Group 401" transform="translate(0 62.162)">
        <text id="Omanization" transform="translate(37.196 13.645)" fill="#fff" font-size="13" font-family="Roboto-Regular, Roboto"><tspan x="-36.616" y="0">Omanization</tspan></text>
        <text id="_60_" data-name="60%" transform="translate(38.196 43.645)" fill="#fff" font-size="18" font-family="Roboto-Regular, Roboto"><tspan x="-16.699" y="0">60%</tspan></text>
      </g>
    </g>
    <g id="oman_1_" data-name="oman (1)" transform="translate(350.654 1733.82)">
      <g id="Group_10954" data-name="Group 10954" transform="translate(0 106.2)">
        <g id="Group_10953" data-name="Group 10953" transform="translate(0 0)">
          <path id="Path_10304" data-name="Path 10304" d="M57.779,119.1v2.654H44.791v-6.626H34.852v-5.3h7.156V103.2H32.864v11.927H22.925v6.626H9.939V119.1H0v24.516H67.718V119.1ZM34.852,105.191H40.02v2.654H34.852Zm-26.9,36.441H1.991v-20.54h5.96Zm9.474,0H15.435v-4.307a1,1,0,0,1,1.991,0Zm5.5,0H19.413v-4.307a2.982,2.982,0,1,0-5.964,0v4.307H9.939v-9.939H22.926Zm0-11.927H9.939v-5.963H22.926Zm13.914,11.927H30.877V134.21H36.84Zm0-9.409H30.877v-4.754a4.814,4.814,0,0,1,2.982-4.457,4.814,4.814,0,0,1,2.982,4.457Zm5.963,9.409H38.82V127.468a6.8,6.8,0,0,0-4.656-6.459l-.315-.1-.315.1a6.8,6.8,0,0,0-4.656,6.459v14.163H24.9V117.116h3.318v1.922h1.991v-1.922h2.654v1.922h1.991v-1.922h2.654v1.922H39.5v-1.922h3.318v24.516Zm9.474,0H50.285v-4.307a1,1,0,0,1,1.991,0Zm5.5,0h-3.51v-4.307a2.982,2.982,0,1,0-5.964,0v4.307H44.791v-9.939H57.779v9.939Zm0-11.927H44.791v-5.963H57.779V129.7Zm7.951,11.927H59.765v-20.54h5.963Z" transform="translate(0 -103.2)" fill="#fff"/>
        </g>
      </g>
      <g id="Group_10956" data-name="Group 10956" transform="translate(3.976 129.374)">
        <g id="Group_10955" data-name="Group 10955">
          <rect id="Rectangle_322" data-name="Rectangle 322" width="1.988" height="7.951" fill="#fff"/>
        </g>
      </g>
      <g id="Group_10958" data-name="Group 10958" transform="translate(3.976 124.073)">
        <g id="Group_10957" data-name="Group 10957">
          <rect id="Rectangle_323" data-name="Rectangle 323" width="1.988" height="1.988" fill="#fff"/>
        </g>
      </g>
      <g id="Group_10960" data-name="Group 10960" transform="translate(61.753 129.374)">
        <g id="Group_10959" data-name="Group 10959">
          <rect id="Rectangle_324" data-name="Rectangle 324" width="1.988" height="7.951" fill="#fff"/>
        </g>
      </g>
      <g id="Group_10962" data-name="Group 10962" transform="translate(61.753 124.073)">
        <g id="Group_10961" data-name="Group 10961">
          <rect id="Rectangle_325" data-name="Rectangle 325" width="1.988" height="1.988" fill="#fff"/>
        </g>
      </g>
      <g id="Group_10964" data-name="Group 10964" transform="translate(32.864 136)">
        <g id="Group_10963" data-name="Group 10963">
          <rect id="Rectangle_326" data-name="Rectangle 326" width="1.988" height="3.976" fill="#fff"/>
        </g>
      </g>
      <g id="Group_10966" data-name="Group 10966" transform="translate(32.864 125.398)">
        <g id="Group_10965" data-name="Group 10965">
          <rect id="Rectangle_327" data-name="Rectangle 327" width="1.988" height="5.301" fill="#fff"/>
        </g>
      </g>
      <g id="Group_10968" data-name="Group 10968" transform="translate(15.439 125.862)">
        <g id="Group_10967" data-name="Group 10967">
          <rect id="Rectangle_328" data-name="Rectangle 328" width="1.988" height="1.988" fill="#fff"/>
        </g>
      </g>
      <g id="Group_10970" data-name="Group 10970" transform="translate(19.413 125.862)">
        <g id="Group_10969" data-name="Group 10969">
          <rect id="Rectangle_329" data-name="Rectangle 329" width="1.988" height="1.988" fill="#fff"/>
        </g>
      </g>
      <g id="Group_10972" data-name="Group 10972" transform="translate(11.463 125.862)">
        <g id="Group_10971" data-name="Group 10971">
          <rect id="Rectangle_330" data-name="Rectangle 330" width="1.988" height="1.988" fill="#fff"/>
        </g>
      </g>
      <g id="Group_10974" data-name="Group 10974" transform="translate(50.291 125.862)">
        <g id="Group_10973" data-name="Group 10973">
          <rect id="Rectangle_331" data-name="Rectangle 331" width="1.988" height="1.988" fill="#fff"/>
        </g>
      </g>
      <g id="Group_10976" data-name="Group 10976" transform="translate(54.266 125.862)">
        <g id="Group_10975" data-name="Group 10975">
          <rect id="Rectangle_332" data-name="Rectangle 332" width="1.988" height="1.988" fill="#fff"/>
        </g>
      </g>
      <g id="Group_10978" data-name="Group 10978" transform="translate(46.315 125.862)">
        <g id="Group_10977" data-name="Group 10977">
          <rect id="Rectangle_333" data-name="Rectangle 333" width="1.988" height="1.988" fill="#fff"/>
        </g>
      </g>
      <g id="Group_10980" data-name="Group 10980" transform="translate(26.503 120.628)">
        <g id="Group_10979" data-name="Group 10979">
          <rect id="Rectangle_334" data-name="Rectangle 334" width="1.988" height="2.65" fill="#fff"/>
        </g>
      </g>
      <g id="Group_10982" data-name="Group 10982" transform="translate(39.225 120.628)">
        <g id="Group_10981" data-name="Group 10981">
          <rect id="Rectangle_335" data-name="Rectangle 335" width="1.988" height="2.65" fill="#fff"/>
        </g>
      </g>
    </g>
  </g>
</svg>
